<svg width="832" height="832" viewBox="0 0 832 832" fill="none" xmlns="http://www.w3.org/2000/svg">
<rect width="832" height="832" rx="184" fill="#118DFF"/>
<g filter="url(#filter0_d_16_2)">
<path fill-rule="evenodd" clip-rule="evenodd" d="M213.015 148.837C201.963 153.111 194.805 159.77 189.715 170.514C178.79 193.578 186.983 218.509 209.401 230.421C219.514 235.793 240.729 234.006 250.905 226.922C273.704 211.051 276.504 180.169 256.996 159.74C244.423 146.572 228.854 142.713 213.015 148.837ZM407.056 149.745C397.957 152.028 387.694 159.498 382.657 167.505C380.156 171.479 356.871 241.006 330.914 322.008C259.393 545.194 249.501 575.618 246.421 581.884C242.846 589.155 232.882 601.174 228.284 603.764C225.128 605.541 224.969 605.231 226.652 600.571C227.677 597.733 228.51 590.321 228.498 584.097C228.447 552.951 201.473 527.894 170.784 530.486C156.47 531.694 138.233 541.172 129.997 551.683C118.746 566.039 116.084 574.792 116.006 597.697C115.938 617.286 116.322 619.457 121.97 631.533C129.637 647.921 138.665 659.001 151.864 668.217C180.909 688.496 217.425 690.086 252.103 672.582C276.037 660.5 292.943 642.543 305.775 615.574C309.683 607.364 321.783 574.098 332.665 541.651L352.453 482.654L360.759 481.444C365.327 480.777 394.731 480.232 426.103 480.232H483.141L486.555 489.686C488.432 494.885 497.624 522.875 506.981 551.884C525.968 610.75 534.748 630.183 550.566 648.361C572.169 673.187 596.701 685.602 624.922 685.988C650.034 686.333 664.765 679.07 669.488 664.017C671.276 658.319 670.975 655.976 667.482 648.387C665.223 643.477 662.598 639.458 661.65 639.458C660.702 639.458 659.927 638.563 659.927 637.468C659.927 636.244 669.289 635.478 684.231 635.478C710.326 635.478 712.57 634.66 715.652 624.019C716.646 620.596 715.607 618.108 711.293 613.57L705.629 607.613H677.688C662.32 607.613 644.871 608.672 638.911 609.968C623.423 613.333 614.35 610.117 602.12 596.927C596.863 591.258 590.725 582.612 588.479 577.712C586.233 572.81 556.381 481.002 522.142 373.691C487.902 266.381 458.515 175.787 456.835 172.369C452.644 163.847 440.084 152.942 431.246 150.157C423.153 147.605 416.065 147.486 407.056 149.745ZM129.094 278.123C123.149 284.375 123.217 289.237 129.331 295.282L134.211 300.107H213.696H293.179L296.799 295.408C301.185 289.713 301.42 283.587 297.473 277.662L294.528 273.237H214.133H133.738L129.094 278.123ZM536.937 277.218C532.169 282.233 532.082 290.024 536.738 294.922C541.813 300.26 569.754 301.761 645.915 300.781L707.656 299.987L711.228 295.348C716.015 289.128 715.73 282.811 710.42 277.564C706.061 273.257 705.645 273.237 623.382 273.237C543.244 273.237 540.606 273.359 536.937 277.218ZM423.902 294.635C426.776 303.118 435.435 329.315 443.142 352.85C450.848 376.386 457.741 397.211 458.458 399.126C459.677 402.378 457.053 402.609 418.88 402.609C396.394 402.609 377.98 401.938 377.957 401.116C377.885 398.389 416.769 279.22 417.732 279.214C418.252 279.212 421.03 286.152 423.902 294.635ZM149.477 341.139C117.62 357.727 119.325 405.294 152.298 419.829C161.312 423.802 178.146 423.225 186.672 418.649C194.652 414.366 205.108 402.824 207.83 395.292C210.706 387.333 209.785 370.387 206.008 361.807C196.385 339.943 170.178 330.362 149.477 341.139ZM655.196 340.668C632.933 351.409 624.002 379.766 636.065 401.415C643.577 414.901 653.722 421.248 669.177 422.138C680.059 422.763 683.035 422.11 692.065 417.122C712.566 405.795 719.692 381.649 709.007 359.715C699.399 339.995 674.704 331.253 655.196 340.668ZM127.395 462.763C123.244 468.996 123.724 473.68 129.094 479.326L133.738 484.212H182.727C227.068 484.212 231.978 483.882 234.481 480.729C238.201 476.044 241.762 466.994 241.762 462.225C241.762 458.458 240.054 458.338 186.052 458.338C130.625 458.338 130.324 458.36 127.395 462.763ZM596.674 461.465C595.039 463.186 593.701 467.613 593.701 471.305C593.701 483.812 595.584 484.212 654.341 484.212C706.488 484.212 706.577 484.204 710.685 479.607C715.817 473.859 715.938 467.498 711.015 462.319C707.408 458.525 704.708 458.338 653.438 458.338C607.062 458.338 599.238 458.77 596.674 461.465ZM349.336 613.57C343.299 619.921 343.259 624.895 349.185 631.995C351.853 635.189 357.686 635.478 419.809 635.478H487.527L490.472 631.053C495.743 623.138 493.437 614.906 484.555 609.928C481.652 608.302 461.758 607.613 417.711 607.613H355L349.336 613.57Z" fill="white"/>
</g>
<defs>
<filter id="filter0_d_16_2" x="116" y="146" width="612" height="552" filterUnits="userSpaceOnUse" color-interpolation-filters="sRGB">
<feFlood flood-opacity="0" result="BackgroundImageFix"/>
<feColorMatrix in="SourceAlpha" type="matrix" values="0 0 0 0 0 0 0 0 0 0 0 0 0 0 0 0 0 0 127 0" result="hardAlpha"/>
<feOffset dx="8" dy="8"/>
<feGaussianBlur stdDeviation="2"/>
<feComposite in2="hardAlpha" operator="out"/>
<feColorMatrix type="matrix" values="0 0 0 0 0 0 0 0 0 0 0 0 0 0 0 0 0 0 0.25 0"/>
<feBlend mode="normal" in2="BackgroundImageFix" result="effect1_dropShadow_16_2"/>
<feBlend mode="normal" in="SourceGraphic" in2="effect1_dropShadow_16_2" result="shape"/>
</filter>
</defs>
</svg>
